ffmpeg started on 2016-12-12 at 00:09:53
Report written to "Output/theora/results/ffmpeg/sintel500k.log"
Command line:
Tools/ffmpeg/ffmpeg -benchmark -y -i Input/y4m/sintel.y4m -c:v libtheora -b:v 500k -an Output/theora/encoded/sintel500k.mkv
ffmpeg version N-82227-gdb23fde Copyright (c) 2000-2016 the FFmpeg developers
  built with gcc 5.4.0 (Ubuntu 5.4.0-6ubuntu1~16.04.2) 20160609
  configuration: --prefix=/home/jaroslav/ffmpeg_build --pkg-config-flags=--static --extra-cflags=-I/home/jaroslav/ffmpeg_build/include --extra-ldflags=-L/home/jaroslav/ffmpeg_build/lib --bindir=/home/jaroslav/bin --enable-gpl --enable-libass --enable-libfdk-aac --enable-libfreetype --enable-libmp3lame --enable-libopus --enable-libtheora --enable-libvorbis --enable-libvpx --enable-libx264 --enable-libx265 --enable-nvenc --enable-libmfx --enable-libxvid --enable-libgsm --enable-libopencore-amrnb --enable-version3 --enable-nonfree
  libavutil      55. 35.100 / 55. 35.100
  libavcodec     57. 66.101 / 57. 66.101
  libavformat    57. 57.100 / 57. 57.100
  libavdevice    57.  2.100 / 57.  2.100
  libavfilter     6. 66.100 /  6. 66.100
  libswscale      4.  3.100 /  4.  3.100
  libswresample   2.  4.100 /  2.  4.100
  libpostproc    54.  2.100 / 54.  2.100
Input #0, yuv4mpegpipe, from 'Input/y4m/sintel.y4m':
  Duration: 00:00:20.83, start: 0.000000, bitrate: 2057307 kb/s
    Stream #0:0: Video: rawvideo (I420 / 0x30323449), yuv420p(progressive), 4096x1744, SAR 1:1 DAR 256:109, 24 fps, 24 tbr, 24 tbn, 24 tbc
Output #0, matroska, to 'Output/theora/encoded/sintel500k.mkv':
  Metadata:
    encoder         : Lavf57.57.100
    Stream #0:0: Video: theora (libtheora) (theo / 0x6F656874), yuv420p, 4096x1744 [SAR 1:1 DAR 256:109], q=2-31, 500 kb/s, 24 fps, 1k tbn, 24 tbc
    Metadata:
      encoder         : Lavc57.66.101 libtheora
Stream mapping:
  Stream #0:0 -> #0:0 (rawvideo (native) -> theora (libtheora))
Press [q] to stop, [?] for help
frame=    3 fps=0.8 q=-0.0 size=       4kB time=00:00:00.08 bitrate= 380.5kbits/s speed=0.0225x    frame=    5 fps=1.2 q=-0.0 size=       4kB time=00:00:00.16 bitrate= 190.2kbits/s speed=0.0389x    frame=    7 fps=1.4 q=-0.0 size=       4kB time=00:00:00.25 bitrate= 127.3kbits/s speed=0.051x    frame=    9 fps=1.6 q=-0.0 size=       4kB time=00:00:00.33 bitrate=  95.7kbits/s speed=0.0603x    frame=   11 fps=1.8 q=-0.0 size=     113kB time=00:00:00.41 bitrate=2222.6kbits/s speed=0.0668x    frame=   13 fps=1.8 q=-0.0 size=     113kB time=00:00:00.50 bitrate=1854.4kbits/s speed=0.0712x    frame=   15 fps=1.9 q=-0.0 size=     113kB time=00:00:00.58 bitrate=1590.8kbits/s speed=0.0747x    frame=   17 fps=1.4 q=-0.0 size=     113kB time=00:00:00.66 bitrate=1390.8kbits/s speed=0.0556x    frame=   18 fps=1.4 q=-0.0 size=     113kB time=00:00:00.70 bitrate=1310.4kbits/s speed=0.0544x    frame=   20 fps=1.5 q=-0.0 size=     159kB time=00:00:00.79 bitrate=1647.0kbits/s speed=0.0582x    frame=   22 fps=1.5 q=-0.0 size=     159kB time=00:00:00.87 bitrate=1490.9kbits/s speed=0.0608x    frame=   24 fps=1.6 q=-0.0 size=     159kB time=00:00:00.95 bitrate=1361.9kbits/s speed=0.0635x    frame=   26 fps=1.7 q=-0.0 size=     159kB time=00:00:01.04 bitrate=1252.2kbits/s speed=0.0665x    frame=   28 fps=1.7 q=-0.0 size=     159kB time=00:00:01.12 bitrate=1159.9kbits/s speed=0.0684x    frame=   30 fps=1.8 q=-0.0 size=     159kB time=00:00:01.20 bitrate=1080.3kbits/s speed=0.0706x    frame=   32 fps=1.8 q=-0.0 size=     159kB time=00:00:01.29 bitrate=1010.1kbits/s speed=0.073x    frame=   34 fps=1.9 q=-0.0 size=     159kB time=00:00:01.37 bitrate= 949.2kbits/s speed=0.0752x    frame=   36 fps=1.9 q=-0.0 size=     159kB time=00:00:01.45 bitrate= 895.2kbits/s speed=0.0772x    frame=   38 fps=1.9 q=-0.0 size=     159kB time=00:00:01.54 bitrate= 846.4kbits/s speed=0.0792x    frame=   40 fps=2.0 q=-0.0 size=     196kB time=00:00:01.62 bitrate= 989.3kbits/s speed=0.0809x    frame=   43 fps=2.1 q=-0.0 size=     196kB time=00:00:01.75 bitrate= 918.6kbits/s speed=0.0841x    frame=   45 fps=2.1 q=-0.0 size=     196kB time=00:00:01.83 bitrate= 877.1kbits/s speed=0.0857x    frame=   47 fps=2.1 q=-0.0 size=     196kB time=00:00:01.91 bitrate= 838.6kbits/s speed=0.0872x    frame=   49 fps=2.2 q=-0.0 size=     196kB time=00:00:02.00 bitrate= 803.9kbits/s speed=0.0886x    frame=   51 fps=2.2 q=-0.0 size=     196kB time=00:00:02.08 bitrate= 771.8kbits/s speed=0.0899x    frame=   54 fps=2.3 q=-0.0 size=     233kB time=00:00:02.20 bitrate= 865.2kbits/s speed=0.0924x    frame=   56 fps=2.3 q=-0.0 size=     273kB time=00:00:02.29 bitrate= 974.0kbits/s speed=0.0936x    frame=   58 fps=2.3 q=-0.0 size=     273kB time=00:00:02.37 bitrate= 940.0kbits/s speed=0.094x    frame=   60 fps=2.3 q=-0.0 size=     273kB time=00:00:02.45 bitrate= 908.3kbits/s speed=0.0944x    frame=   62 fps=2.3 q=-0.0 size=     273kB time=00:00:02.54 bitrate= 878.3kbits/s speed=0.0948x    frame=   64 fps=2.3 q=-0.0 size=     273kB time=00:00:02.62 bitrate= 850.5kbits/s speed=0.0952x    frame=   66 fps=2.3 q=-0.0 size=     273kB time=00:00:02.70 bitrate= 824.5kbits/s speed=0.0956x    frame=   68 fps=2.3 q=-0.0 size=     273kB time=00:00:02.79 bitrate= 799.7kbits/s speed=0.0959x    frame=   70 fps=2.3 q=-0.0 size=     273kB time=00:00:02.87 bitrate= 776.6kbits/s speed=0.0963x    frame=   72 fps=2.4 q=-0.0 size=     300kB time=00:00:02.95 bitrate= 831.5kbits/s speed=0.0969x    frame=   74 fps=2.3 q=-0.0 size=     300kB time=00:00:03.04 bitrate= 808.6kbits/s speed=0.096x    frame=   76 fps=2.3 q=-0.0 size=     300kB time=00:00:03.12 bitrate= 787.1kbits/s speed=0.0963x    frame=   78 fps=2.3 q=-0.0 size=     300kB time=00:00:03.20 bitrate= 766.8kbits/s speed=0.0966x    frame=   80 fps=2.4 q=-0.0 size=     300kB time=00:00:03.29 bitrate= 747.2kbits/s speed=0.0969x    frame=   82 fps=2.4 q=-0.0 size=     328kB time=00:00:03.37 bitrate= 794.8kbits/s speed=0.0972x    frame=   84 fps=2.4 q=-0.0 size=     328kB time=00:00:03.45 bitrate= 775.8kbits/s speed=0.0975x    frame=   86 fps=2.4 q=-0.0 size=     328kB time=00:00:03.54 bitrate= 757.4kbits/s speed=0.0978x    frame=   88 fps=2.4 q=-0.0 size=     328kB time=00:00:03.62 bitrate= 740.0kbits/s speed=0.098x    frame=   90 fps=2.4 q=-0.0 size=     328kB time=00:00:03.70 bitrate= 723.5kbits/s speed=0.0982x    frame=   92 fps=2.4 q=-0.0 size=     328kB time=00:00:03.79 bitrate= 707.4kbits/s speed=0.0984x    frame=   94 fps=2.4 q=-0.0 size=     328kB time=00:00:03.87 bitrate= 692.3kbits/s speed=0.0986x    frame=   96 fps=2.4 q=-0.0 size=     361kB time=00:00:03.95 bitrate= 747.7kbits/s speed=0.0991x    frame=   98 fps=2.4 q=-0.0 size=     361kB time=00:00:04.04 bitrate= 732.2kbits/s speed=0.0993x    frame=  100 fps=2.4 q=-0.0 size=     361kB time=00:00:04.12 bitrate= 717.5kbits/s speed=0.0995x    frame=  102 fps=2.4 q=-0.0 size=     361kB time=00:00:04.20 bitrate= 703.3kbits/s speed=0.0996x    frame=  104 fps=2.4 q=-0.0 size=     361kB time=00:00:04.29 bitrate= 689.6kbits/s speed=0.0998x    frame=  106 fps=2.4 q=-0.0 size=     361kB time=00:00:04.37 bitrate= 676.5kbits/s speed=0.0999x    frame=  108 fps=2.4 q=-0.0 size=     361kB time=00:00:04.45 bitrate= 663.9kbits/s speed= 0.1x    frame=  110 fps=2.4 q=-0.0 size=     395kB time=00:00:04.54 bitrate= 712.8kbits/s speed=0.101x    frame=  112 fps=2.4 q=-0.0 size=     395kB time=00:00:04.62 bitrate= 700.0kbits/s speed=0.101x    frame=  114 fps=2.4 q=-0.0 size=     395kB time=00:00:04.70 bitrate= 687.7kbits/s speed=0.101x    frame=  116 fps=2.4 q=-0.0 size=     395kB time=00:00:04.79 bitrate= 675.6kbits/s speed=0.101x    frame=  118 fps=2.5 q=-0.0 size=     395kB time=00:00:04.87 bitrate= 664.1kbits/s speed=0.101x    frame=  120 fps=2.5 q=-0.0 size=     395kB time=00:00:04.95 bitrate= 653.0kbits/s speed=0.101x    frame=  122 fps=2.5 q=-0.0 size=     395kB time=00:00:05.04 bitrate= 642.1kbits/s speed=0.101x    frame=  124 fps=2.5 q=-0.0 size=     395kB time=00:00:05.12 bitrate= 631.7kbits/s speed=0.102x    frame=  126 fps=2.5 q=-0.0 size=     395kB time=00:00:05.20 bitrate= 621.7kbits/s speed=0.102x    frame=  128 fps=2.5 q=-0.0 size=     441kB time=00:00:05.29 bitrate= 682.8kbits/s speed=0.102x    frame=  130 fps=2.5 q=-0.0 size=     441kB time=00:00:05.37 bitrate= 672.3kbits/s speed=0.102x    frame=  132 fps=2.5 q=-0.0 size=     441kB time=00:00:05.45 bitrate= 662.1kbits/s speed=0.102x    frame=  134 fps=2.5 q=-0.0 size=     441kB time=00:00:05.54 bitrate= 652.0kbits/s speed=0.102x    frame=  136 fps=2.5 q=-0.0 size=     441kB time=00:00:05.62 bitrate= 642.4kbits/s speed=0.102x    frame=  138 fps=2.5 q=-0.0 size=     441kB time=00:00:05.70 bitrate= 633.1kbits/s speed=0.102x    frame=  140 fps=2.5 q=-0.0 size=     441kB time=00:00:05.79 bitrate= 623.9kbits/s speed=0.102x    frame=  142 fps=2.5 q=-0.0 size=     441kB time=00:00:05.87 bitrate= 615.1kbits/s speed=0.102x    frame=  144 fps=2.5 q=-0.0 size=     441kB time=00:00:05.95 bitrate= 606.5kbits/s speed=0.102x    frame=  146 fps=2.5 q=-0.0 size=     441kB time=00:00:06.04 bitrate= 598.1kbits/s speed=0.102x    frame=  148 fps=2.5 q=-0.0 size=     441kB time=00:00:06.12 bitrate= 590.0kbits/s speed=0.103x    frame=  150 fps=2.5 q=-0.0 size=     441kB time=00:00:06.20 bitrate= 582.1kbits/s speed=0.103x    frame=  152 fps=2.5 q=-0.0 size=     441kB time=00:00:06.29 bitrate= 574.3kbits/s speed=0.103x    frame=  154 fps=2.5 q=-0.0 size=     497kB time=00:00:06.37 bitrate= 638.2kbits/s speed=0.104x    frame=  156 fps=2.5 q=-0.0 size=     497kB time=00:00:06.45 bitrate= 630.0kbits/s speed=0.104x    frame=  158 fps=2.5 q=-0.0 size=     497kB time=00:00:06.54 bitrate= 621.9kbits/s speed=0.104x    frame=  160 fps=2.5 q=-0.0 size=     497kB time=00:00:06.62 bitrate= 614.1kbits/s speed=0.104x    frame=  162 fps=2.5 q=-0.0 size=     528kB time=00:00:06.70 bitrate= 644.9kbits/s speed=0.104x    frame=  164 fps=2.5 q=-0.0 size=     528kB time=00:00:06.79 bitrate= 636.9kbits/s speed=0.104x    frame=  166 fps=2.5 q=-0.0 size=     528kB time=00:00:06.87 bitrate= 629.2kbits/s speed=0.104x    frame=  168 fps=2.5 q=-0.0 size=     528kB time=00:00:06.95 bitrate= 621.7kbits/s speed=0.104x    frame=  170 fps=2.5 q=-0.0 size=     528kB time=00:00:07.04 bitrate= 614.3kbits/s speed=0.104x    frame=  172 fps=2.5 q=-0.0 size=     528kB time=00:00:07.12 bitrate= 607.1kbits/s speed=0.104x    frame=  174 fps=2.5 q=-0.0 size=     562kB time=00:00:07.20 bitrate= 638.9kbits/s speed=0.104x    frame=  176 fps=2.5 q=-0.0 size=     562kB time=00:00:07.29 bitrate= 631.5kbits/s speed=0.104x    frame=  178 fps=2.5 q=-0.0 size=     562kB time=00:00:07.37 bitrate= 624.4kbits/s speed=0.105x    frame=  180 fps=2.5 q=-0.0 size=     562kB time=00:00:07.45 bitrate= 617.5kbits/s speed=0.105x    frame=  182 fps=2.5 q=-0.0 size=     562kB time=00:00:07.54 bitrate= 610.6kbits/s speed=0.105x    frame=  184 fps=2.5 q=-0.0 size=     562kB time=00:00:07.62 bitrate= 603.9kbits/s speed=0.105x    frame=  186 fps=2.5 q=-0.0 size=     562kB time=00:00:07.70 bitrate= 597.4kbits/s speed=0.105x    frame=  188 fps=2.5 q=-0.0 size=     562kB time=00:00:07.79 bitrate= 591.0kbits/s speed=0.105x    frame=  190 fps=2.5 q=-0.0 size=     562kB time=00:00:07.87 bitrate= 584.8kbits/s speed=0.105x    frame=  192 fps=2.6 q=-0.0 size=     562kB time=00:00:07.95 bitrate= 578.7kbits/s speed=0.106x    frame=  194 fps=2.6 q=-0.0 size=     600kB time=00:00:08.04 bitrate= 611.1kbits/s speed=0.106x    frame=  196 fps=2.6 q=-0.0 size=     600kB time=00:00:08.12 bitrate= 604.8kbits/s speed=0.106x    frame=  198 fps=2.6 q=-0.0 size=     600kB time=00:00:08.20 bitrate= 598.7kbits/s speed=0.106x    frame=  200 fps=2.6 q=-0.0 size=     600kB time=00:00:08.29 bitrate= 592.7kbits/s speed=0.106x    frame=  202 fps=2.6 q=-0.0 size=     633kB time=00:00:08.37 bitrate= 618.7kbits/s speed=0.106x    frame=  204 fps=2.6 q=-0.0 size=     633kB time=00:00:08.45 bitrate= 612.6kbits/s speed=0.106x    frame=  206 fps=2.6 q=-0.0 size=     633kB time=00:00:08.54 bitrate= 606.6kbits/s speed=0.106x    frame=  208 fps=2.6 q=-0.0 size=     633kB time=00:00:08.62 bitrate= 600.7kbits/s speed=0.106x    frame=  210 fps=2.6 q=-0.0 size=     633kB time=00:00:08.70 bitrate= 595.0kbits/s speed=0.106x    frame=  212 fps=2.6 q=-0.0 size=     633kB time=00:00:08.79 bitrate= 589.3kbits/s speed=0.106x    frame=  214 fps=2.6 q=-0.0 size=     633kB time=00:00:08.87 bitrate= 583.8kbits/s speed=0.106x    frame=  216 fps=2.6 q=-0.0 size=     633kB time=00:00:08.95 bitrate= 578.4kbits/s speed=0.106x    frame=  218 fps=2.6 q=-0.0 size=     633kB time=00:00:09.04 bitrate= 573.0kbits/s speed=0.106x    frame=  220 fps=2.6 q=-0.0 size=     633kB time=00:00:09.12 bitrate= 567.8kbits/s speed=0.106x    frame=  222 fps=2.6 q=-0.0 size=     633kB time=00:00:09.20 bitrate= 562.7kbits/s speed=0.107x    frame=  224 fps=2.6 q=-0.0 size=     633kB time=00:00:09.29 bitrate= 557.6kbits/s speed=0.107x    frame=  226 fps=2.6 q=-0.0 size=     633kB time=00:00:09.37 bitrate= 552.7kbits/s speed=0.107x    frame=  228 fps=2.6 q=-0.0 size=     675kB time=00:00:09.45 bitrate= 584.6kbits/s speed=0.107x    frame=  231 fps=2.6 q=-0.0 size=     675kB time=00:00:09.58 bitrate= 577.0kbits/s speed=0.108x    frame=  233 fps=2.6 q=-0.0 size=     675kB time=00:00:09.66 bitrate= 572.0kbits/s speed=0.108x    frame=  235 fps=2.6 q=-0.0 size=     675kB time=00:00:09.75 bitrate= 567.1kbits/s speed=0.108x    frame=  237 fps=2.6 q=-0.0 size=     675kB time=00:00:09.83 bitrate= 562.3kbits/s speed=0.108x    frame=  239 fps=2.6 q=-0.0 size=     675kB time=00:00:09.91 bitrate= 557.6kbits/s speed=0.109x    frame=  242 fps=2.6 q=-0.0 size=     730kB time=00:00:10.04 bitrate= 595.6kbits/s speed=0.109x    frame=  244 fps=2.6 q=-0.0 size=     730kB time=00:00:10.12 bitrate= 590.7kbits/s speed=0.109x    frame=  246 fps=2.6 q=-0.0 size=     784kB time=00:00:10.20 bitrate= 629.3kbits/s speed=0.109x    frame=  248 fps=2.6 q=-0.0 size=     784kB time=00:00:10.29 bitrate= 624.1kbits/s speed=0.109x    frame=  250 fps=2.6 q=-0.0 size=     784kB time=00:00:10.37 bitrate= 619.1kbits/s speed=0.109x    frame=  252 fps=2.6 q=-0.0 size=     784kB time=00:00:10.45 bitrate= 614.2kbits/s speed=0.109x    frame=  254 fps=2.6 q=-0.0 size=     784kB time=00:00:10.54 bitrate= 609.3kbits/s speed=0.109x    frame=  256 fps=2.6 q=-0.0 size=     784kB time=00:00:10.62 bitrate= 604.6kbits/s speed=0.109x    frame=  258 fps=2.6 q=-0.0 size=     784kB time=00:00:10.70 bitrate= 599.9kbits/s speed=0.109x    frame=  260 fps=2.6 q=-0.0 size=     784kB time=00:00:10.79 bitrate= 595.2kbits/s speed=0.109x    frame=  262 fps=2.6 q=-0.0 size=     784kB time=00:00:10.87 bitrate= 590.7kbits/s speed=0.11x    frame=  264 fps=2.6 q=-0.0 size=     784kB time=00:00:10.95 bitrate= 586.2kbits/s speed=0.11x    frame=  266 fps=2.6 q=-0.0 size=     784kB time=00:00:11.04 bitrate= 581.7kbits/s speed=0.11x    frame=  269 fps=2.7 q=-0.0 size=     784kB time=00:00:11.16 bitrate= 575.2kbits/s speed=0.11x    frame=  271 fps=2.7 q=-0.0 size=     784kB time=00:00:11.25 bitrate= 571.0kbits/s speed=0.111x    frame=  273 fps=2.7 q=-0.0 size=     784kB time=00:00:11.33 bitrate= 566.8kbits/s speed=0.111x    frame=  275 fps=2.7 q=-0.0 size=     784kB time=00:00:11.41 bitrate= 562.6kbits/s speed=0.111x    frame=  277 fps=2.7 q=-0.0 size=     784kB time=00:00:11.50 bitrate= 558.6kbits/s speed=0.111x    frame=  279 fps=2.7 q=-0.0 size=     843kB time=00:00:11.58 bitrate= 596.0kbits/s speed=0.111x    frame=  282 fps=2.7 q=-0.0 size=     843kB time=00:00:11.70 bitrate= 589.7kbits/s speed=0.112x    frame=  284 fps=2.7 q=-0.0 size=     843kB time=00:00:11.79 bitrate= 585.5kbits/s speed=0.112x    frame=  286 fps=2.7 q=-0.0 size=     843kB time=00:00:11.87 bitrate= 581.4kbits/s speed=0.112x    frame=  288 fps=2.7 q=-0.0 size=     843kB time=00:00:11.95 bitrate= 577.4kbits/s speed=0.112x    frame=  290 fps=2.7 q=-0.0 size=     843kB time=00:00:12.04 bitrate= 573.3kbits/s speed=0.112x    frame=  293 fps=2.7 q=-0.0 size=     899kB time=00:00:12.16 bitrate= 605.2kbits/s speed=0.113x    frame=  295 fps=2.7 q=-0.0 size=     899kB time=00:00:12.25 bitrate= 601.1kbits/s speed=0.113x    frame=  297 fps=2.7 q=-0.0 size=     899kB time=00:00:12.33 bitrate= 597.1kbits/s speed=0.113x    frame=  299 fps=2.7 q=-0.0 size=     899kB time=00:00:12.41 bitrate= 593.0kbits/s speed=0.113x    frame=  301 fps=2.7 q=-0.0 size=     899kB time=00:00:12.50 bitrate= 589.1kbits/s speed=0.113x    frame=  303 fps=2.7 q=-0.0 size=     960kB time=00:00:12.58 bitrate= 625.1kbits/s speed=0.114x    frame=  306 fps=2.7 q=-0.0 size=     960kB time=00:00:12.70 bitrate= 619.0kbits/s speed=0.114x    frame=  308 fps=2.7 q=-0.0 size=     960kB time=00:00:12.79 bitrate= 614.9kbits/s speed=0.114x    frame=  310 fps=2.8 q=-0.0 size=     960kB time=00:00:12.87 bitrate= 611.0kbits/s speed=0.114x    frame=  312 fps=2.8 q=-0.0 size=     960kB time=00:00:12.95 bitrate= 607.1kbits/s speed=0.115x    frame=  314 fps=2.8 q=-0.0 size=     960kB time=00:00:13.04 bitrate= 603.1kbits/s speed=0.115x    frame=  317 fps=2.8 q=-0.0 size=    1024kB time=00:00:13.16 bitrate= 637.3kbits/s speed=0.115x    frame=  319 fps=2.8 q=-0.0 size=    1024kB time=00:00:13.25 bitrate= 633.4kbits/s speed=0.115x    frame=  321 fps=2.8 q=-0.0 size=    1024kB time=00:00:13.33 bitrate= 629.4kbits/s speed=0.115x    frame=  323 fps=2.8 q=-0.0 size=    1024kB time=00:00:13.41 bitrate= 625.5kbits/s speed=0.116x    frame=  325 fps=2.8 q=-0.0 size=    1024kB time=00:00:13.50 bitrate= 621.6kbits/s speed=0.116x    frame=  327 fps=2.8 q=-0.0 size=    1088kB time=00:00:13.58 bitrate= 656.2kbits/s speed=0.116x    frame=  330 fps=2.8 q=-0.0 size=    1088kB time=00:00:13.70 bitrate= 650.3kbits/s speed=0.116x    frame=  332 fps=2.8 q=-0.0 size=    1088kB time=00:00:13.79 bitrate= 646.3kbits/s speed=0.116x    frame=  334 fps=2.8 q=-0.0 size=    1088kB time=00:00:13.87 bitrate= 642.4kbits/s speed=0.116x    frame=  336 fps=2.8 q=-0.0 size=    1088kB time=00:00:13.95 bitrate= 638.6kbits/s speed=0.117x    frame=  338 fps=2.8 q=-0.0 size=    1088kB time=00:00:14.04 bitrate= 634.8kbits/s speed=0.117x    frame=  341 fps=2.8 q=-0.0 size=    1152kB time=00:00:14.16 bitrate= 666.3kbits/s speed=0.117x    frame=  343 fps=2.8 q=-0.0 size=    1152kB time=00:00:14.25 bitrate= 662.4kbits/s speed=0.117x    frame=  345 fps=2.8 q=-0.0 size=    1152kB time=00:00:14.33 bitrate= 658.5kbits/s speed=0.117x    frame=  347 fps=2.8 q=-0.0 size=    1152kB time=00:00:14.41 bitrate= 654.7kbits/s speed=0.118x    frame=  349 fps=2.8 q=-0.0 size=    1152kB time=00:00:14.50 bitrate= 651.0kbits/s speed=0.118x    frame=  351 fps=2.8 q=-0.0 size=    1216kB time=00:00:14.58 bitrate= 682.9kbits/s speed=0.118x    frame=  354 fps=2.8 q=-0.0 size=    1216kB time=00:00:14.70 bitrate= 677.1kbits/s speed=0.118x    frame=  356 fps=2.8 q=-0.0 size=    1216kB time=00:00:14.79 bitrate= 673.3kbits/s speed=0.118x    frame=  358 fps=2.9 q=-0.0 size=    1216kB time=00:00:14.87 bitrate= 669.5kbits/s speed=0.118x    frame=  360 fps=2.9 q=-0.0 size=    1216kB time=00:00:14.95 bitrate= 665.8kbits/s speed=0.119x    frame=  362 fps=2.9 q=-0.0 size=    1216kB time=00:00:15.04 bitrate= 662.1kbits/s speed=0.119x    frame=  365 fps=2.9 q=-0.0 size=    1280kB time=00:00:15.16 bitrate= 691.2kbits/s speed=0.119x    frame=  367 fps=2.9 q=-0.0 size=    1280kB time=00:00:15.25 bitrate= 687.4kbits/s speed=0.119x    frame=  369 fps=2.9 q=-0.0 size=    1280kB time=00:00:15.33 bitrate= 683.7kbits/s speed=0.119x    frame=  371 fps=2.9 q=-0.0 size=    1280kB time=00:00:15.41 bitrate= 680.0kbits/s speed=0.119x    frame=  373 fps=2.9 q=-0.0 size=    1280kB time=00:00:15.50 bitrate= 676.3kbits/s speed=0.119x    frame=  375 fps=2.9 q=-0.0 size=    1309kB time=00:00:15.58 bitrate= 688.1kbits/s speed=0.12x    frame=  378 fps=2.9 q=-0.0 size=    1309kB time=00:00:15.70 bitrate= 682.6kbits/s speed=0.12x    frame=  380 fps=2.9 q=-0.0 size=    1309kB time=00:00:15.79 bitrate= 679.0kbits/s speed=0.12x    frame=  382 fps=2.9 q=-0.0 size=    1309kB time=00:00:15.87 bitrate= 675.4kbits/s speed=0.12x    frame=  384 fps=2.9 q=-0.0 size=    1309kB time=00:00:15.95 bitrate= 671.9kbits/s speed=0.12x    frame=  386 fps=2.9 q=-0.0 size=    1309kB time=00:00:16.04 bitrate= 668.4kbits/s speed=0.12x    frame=  389 fps=2.9 q=-0.0 size=    1342kB time=00:00:16.16 bitrate= 679.9kbits/s speed=0.121x    frame=  391 fps=2.9 q=-0.0 size=    1342kB time=00:00:16.25 bitrate= 676.4kbits/s speed=0.121x    frame=  393 fps=2.9 q=-0.0 size=    1342kB time=00:00:16.33 bitrate= 673.0kbits/s speed=0.121x    frame=  395 fps=2.9 q=-0.0 size=    1342kB time=00:00:16.41 bitrate= 669.5kbits/s speed=0.121x    frame=  397 fps=2.9 q=-0.0 size=    1342kB time=00:00:16.50 bitrate= 666.1kbits/s speed=0.121x    frame=  399 fps=2.9 q=-0.0 size=    1373kB time=00:00:16.58 bitrate= 678.1kbits/s speed=0.121x    frame=  402 fps=2.9 q=-0.0 size=    1373kB time=00:00:16.70 bitrate= 673.0kbits/s speed=0.121x    frame=  404 fps=2.9 q=-0.0 size=    1373kB time=00:00:16.79 bitrate= 669.6kbits/s speed=0.122x    frame=  406 fps=2.9 q=-0.0 size=    1373kB time=00:00:16.87 bitrate= 666.4kbits/s speed=0.122x    frame=  408 fps=2.9 q=-0.0 size=    1373kB time=00:00:16.95 bitrate= 663.1kbits/s speed=0.122x    frame=  410 fps=2.9 q=-0.0 size=    1373kB time=00:00:17.04 bitrate= 659.8kbits/s speed=0.122x    frame=  413 fps=2.9 q=-0.0 size=    1412kB time=00:00:17.16 bitrate= 673.7kbits/s speed=0.122x    frame=  415 fps=2.9 q=-0.0 size=    1412kB time=00:00:17.25 bitrate= 670.4kbits/s speed=0.122x    frame=  417 fps=2.9 q=-0.0 size=    1412kB time=00:00:17.33 bitrate= 667.2kbits/s speed=0.122x    frame=  419 fps=2.9 q=-0.0 size=    1463kB time=00:00:17.41 bitrate= 688.0kbits/s speed=0.122x    frame=  421 fps=2.9 q=-0.0 size=    1463kB time=00:00:17.50 bitrate= 684.7kbits/s speed=0.122x    frame=  423 fps=2.9 q=-0.0 size=    1463kB time=00:00:17.58 bitrate= 681.5kbits/s speed=0.122x    frame=  425 fps=2.9 q=-0.0 size=    1463kB time=00:00:17.66 bitrate= 678.3kbits/s speed=0.122x    frame=  427 fps=2.9 q=-0.0 size=    1463kB time=00:00:17.75 bitrate= 675.1kbits/s speed=0.122x    frame=  429 fps=2.9 q=-0.0 size=    1463kB time=00:00:17.83 bitrate= 671.9kbits/s speed=0.122x    frame=  430 fps=2.9 q=-0.0 size=    1463kB time=00:00:17.87 bitrate= 670.4kbits/s speed=0.122x    frame=  432 fps=2.9 q=-0.0 size=    1463kB time=00:00:17.95 bitrate= 667.3kbits/s speed=0.122x    frame=  434 fps=2.9 q=-0.0 size=    1463kB time=00:00:18.04 bitrate= 664.2kbits/s speed=0.122x    frame=  437 fps=2.9 q=-0.0 size=    1463kB time=00:00:18.16 bitrate= 659.6kbits/s speed=0.122x    frame=  439 fps=2.9 q=-0.0 size=    1463kB time=00:00:18.25 bitrate= 656.6kbits/s speed=0.123x    frame=  441 fps=3.0 q=-0.0 size=    1463kB time=00:00:18.33 bitrate= 653.6kbits/s speed=0.123x    frame=  443 fps=3.0 q=-0.0 size=    1463kB time=00:00:18.41 bitrate= 650.6kbits/s speed=0.123x    frame=  445 fps=3.0 q=-0.0 size=    1463kB time=00:00:18.50 bitrate= 647.7kbits/s speed=0.123x    frame=  447 fps=3.0 q=-0.0 size=    1522kB time=00:00:18.58 bitrate= 670.8kbits/s speed=0.123x    frame=  450 fps=3.0 q=-0.0 size=    1522kB time=00:00:18.70 bitrate= 666.3kbits/s speed=0.123x    frame=  452 fps=3.0 q=-0.0 size=    1522kB time=00:00:18.79 bitrate= 663.3kbits/s speed=0.123x    frame=  454 fps=3.0 q=-0.0 size=    1522kB time=00:00:18.87 bitrate= 660.4kbits/s speed=0.123x    frame=  456 fps=3.0 q=-0.0 size=    1522kB time=00:00:18.95 bitrate= 657.5kbits/s speed=0.123x    frame=  458 fps=3.0 q=-0.0 size=    1522kB time=00:00:19.04 bitrate= 654.6kbits/s speed=0.123x    frame=  461 fps=3.0 q=-0.0 size=    1577kB time=00:00:19.16 bitrate= 673.9kbits/s speed=0.124x    frame=  463 fps=3.0 q=-0.0 size=    1577kB time=00:00:19.25 bitrate= 671.0kbits/s speed=0.124x    frame=  465 fps=3.0 q=-0.0 size=    1577kB time=00:00:19.33 bitrate= 668.2kbits/s speed=0.124x    frame=  467 fps=3.0 q=-0.0 size=    1577kB time=00:00:19.41 bitrate= 665.3kbits/s speed=0.124x    frame=  469 fps=3.0 q=-0.0 size=    1577kB time=00:00:19.50 bitrate= 662.4kbits/s speed=0.124x    frame=  471 fps=3.0 q=-0.0 size=    1619kB time=00:00:19.58 bitrate= 677.3kbits/s speed=0.124x    frame=  474 fps=3.0 q=-0.0 size=    1619kB time=00:00:19.70 bitrate= 673.0kbits/s speed=0.124x    frame=  476 fps=3.0 q=-0.0 size=    1619kB time=00:00:19.79 bitrate= 670.1kbits/s speed=0.124x    frame=  478 fps=3.0 q=-0.0 size=    1619kB time=00:00:19.87 bitrate= 667.3kbits/s speed=0.124x    frame=  480 fps=3.0 q=-0.0 size=    1619kB time=00:00:19.95 bitrate= 664.6kbits/s speed=0.125x    frame=  482 fps=3.0 q=-0.0 size=    1619kB time=00:00:20.04 bitrate= 661.8kbits/s speed=0.125x    frame=  485 fps=3.0 q=-0.0 size=    1660kB time=00:00:20.16 bitrate= 674.4kbits/s speed=0.125x    frame=  487 fps=3.0 q=-0.0 size=    1660kB time=00:00:20.25 bitrate= 671.6kbits/s speed=0.125x    frame=  489 fps=3.0 q=-0.0 size=    1660kB time=00:00:20.33 bitrate= 668.9kbits/s speed=0.125x    frame=  491 fps=3.0 q=-0.0 size=    1660kB time=00:00:20.41 bitrate= 666.1kbits/s speed=0.125x    frame=  493 fps=3.0 q=-0.0 size=    1660kB time=00:00:20.50 bitrate= 663.4kbits/s speed=0.125x    frame=  495 fps=3.0 q=-0.0 size=    1721kB time=00:00:20.58 bitrate= 684.9kbits/s speed=0.125x    frame=  498 fps=3.0 q=-0.0 size=    1721kB time=00:00:20.70 bitrate= 680.8kbits/s speed=0.125x    frame=  500 fps=3.0 q=-0.0 size=    1721kB time=00:00:20.79 bitrate= 678.0kbits/s speed=0.126x    frame=  500 fps=3.0 q=-0.0 Lsize=    1783kB time=00:00:20.79 bitrate= 702.5kbits/s speed=0.125x    
video:1772kB audio:0kB subtitle:0kB other streams:0kB global headers:3kB muxing overhead: 0.631860%
bench: utime=147.792s
bench: maxrss=226948kB
